<mxfile host="Electron" agent="Mozilla/5.0 (Macintosh; Intel Mac OS X 10_15_7) AppleWebKit/537.36 (KHTML, like Gecko) draw.io/24.7.17 Chrome/128.0.6613.36 Electron/32.0.1 Safari/537.36" version="24.7.17">
  <diagram name="Page-1" id="aaaa8250-4180-3840-79b5-4cada1eebb92">
    <mxGraphModel dx="2798" dy="1189" grid="1" gridSize="10" guides="1" tooltips="1" connect="1" arrows="1" fold="1" page="1" pageScale="1" pageWidth="850" pageHeight="1100" background="none" math="0" shadow="0">
      <root>
        <mxCell id="0" />
        <mxCell id="1" parent="0" />
        <mxCell id="aPHQRfl6VZH8cD_R3Oct-2" value="AWS Cloud" style="points=[[0,0],[0.25,0],[0.5,0],[0.75,0],[1,0],[1,0.25],[1,0.5],[1,0.75],[1,1],[0.75,1],[0.5,1],[0.25,1],[0,1],[0,0.75],[0,0.5],[0,0.25]];outlineConnect=0;gradientColor=none;html=1;whiteSpace=wrap;fontSize=12;fontStyle=0;container=1;pointerEvents=0;collapsible=0;recursiveResize=0;shape=mxgraph.aws4.group;grIcon=mxgraph.aws4.group_aws_cloud;strokeColor=#232F3E;fillColor=none;verticalAlign=top;align=left;spacingLeft=30;fontColor=#232F3E;dashed=0;movable=0;resizable=0;rotatable=0;deletable=0;editable=0;locked=1;connectable=0;" vertex="1" parent="1">
          <mxGeometry x="10" y="10" width="840" height="1090" as="geometry" />
        </mxCell>
        <mxCell id="aPHQRfl6VZH8cD_R3Oct-3" value="Availability Zone.&amp;nbsp;&lt;span style=&quot;color: rgb(227, 148, 220); background-color: rgb(24, 24, 24); font-family: Menlo, Monaco, &amp;quot;Courier New&amp;quot;, monospace; white-space: pre;&quot;&gt;eu-central-1a&quot;&lt;/span&gt;" style="fillColor=none;strokeColor=#147EBA;dashed=1;verticalAlign=top;fontStyle=0;fontColor=#147EBA;whiteSpace=wrap;html=1;movable=0;resizable=0;rotatable=0;deletable=0;editable=0;locked=1;connectable=0;" vertex="1" parent="aPHQRfl6VZH8cD_R3Oct-2">
          <mxGeometry x="110" y="150" width="240" height="880" as="geometry" />
        </mxCell>
        <mxCell id="aPHQRfl6VZH8cD_R3Oct-6" value="Availability Zone.&amp;nbsp;&lt;span style=&quot;color: rgb(227, 148, 220); background-color: rgb(24, 24, 24); font-family: Menlo, Monaco, &amp;quot;Courier New&amp;quot;, monospace; white-space: pre;&quot;&gt;eu-central-1b&quot;&lt;/span&gt;" style="fillColor=none;strokeColor=#147EBA;dashed=1;verticalAlign=top;fontStyle=0;fontColor=#147EBA;whiteSpace=wrap;html=1;movable=0;resizable=0;rotatable=0;deletable=0;editable=0;locked=1;connectable=0;" vertex="1" parent="aPHQRfl6VZH8cD_R3Oct-2">
          <mxGeometry x="510" y="150" width="240" height="880" as="geometry" />
        </mxCell>
        <mxCell id="aPHQRfl6VZH8cD_R3Oct-8" value="Region&amp;nbsp; eu-central-1" style="points=[[0,0],[0.25,0],[0.5,0],[0.75,0],[1,0],[1,0.25],[1,0.5],[1,0.75],[1,1],[0.75,1],[0.5,1],[0.25,1],[0,1],[0,0.75],[0,0.5],[0,0.25]];outlineConnect=0;gradientColor=none;html=1;whiteSpace=wrap;fontSize=12;fontStyle=0;container=1;pointerEvents=0;collapsible=0;recursiveResize=0;shape=mxgraph.aws4.group;grIcon=mxgraph.aws4.group_region;strokeColor=#00A4A6;fillColor=none;verticalAlign=top;align=left;spacingLeft=30;fontColor=#147EBA;dashed=1;movable=0;resizable=0;rotatable=0;deletable=0;editable=0;locked=1;connectable=0;" vertex="1" parent="aPHQRfl6VZH8cD_R3Oct-2">
          <mxGeometry x="30" y="30" width="800" height="1040" as="geometry" />
        </mxCell>
        <mxCell id="aPHQRfl6VZH8cD_R3Oct-10" value="VPC. MyVPC" style="points=[[0,0],[0.25,0],[0.5,0],[0.75,0],[1,0],[1,0.25],[1,0.5],[1,0.75],[1,1],[0.75,1],[0.5,1],[0.25,1],[0,1],[0,0.75],[0,0.5],[0,0.25]];outlineConnect=0;gradientColor=none;html=1;whiteSpace=wrap;fontSize=12;fontStyle=0;container=1;pointerEvents=0;collapsible=0;recursiveResize=0;shape=mxgraph.aws4.group;grIcon=mxgraph.aws4.group_vpc2;strokeColor=#8C4FFF;fillColor=none;verticalAlign=top;align=left;spacingLeft=30;fontColor=#AAB7B8;dashed=0;movable=0;resizable=0;rotatable=0;deletable=0;editable=0;locked=1;connectable=0;" vertex="1" parent="1">
          <mxGeometry x="80" y="200" width="720" height="830" as="geometry" />
        </mxCell>
        <mxCell id="aPHQRfl6VZH8cD_R3Oct-12" value="Public subnet&amp;nbsp;&lt;span style=&quot;background-color: rgb(24, 24, 24); color: rgb(214, 214, 221); font-family: Menlo, Monaco, &amp;quot;Courier New&amp;quot;, monospace; white-space: pre;&quot;&gt;[&lt;/span&gt;&lt;span style=&quot;font-family: Menlo, Monaco, &amp;quot;Courier New&amp;quot;, monospace; white-space: pre; color: rgb(227, 148, 220);&quot;&gt;&quot;10.0.101.0/24&quot;                         &lt;/span&gt;&lt;span style=&quot;font-family: Menlo, Monaco, &amp;quot;Courier New&amp;quot;, monospace; white-space: pre; color: rgb(227, 148, 220);&quot;&gt;&quot;10.0.102.0/24&quot;&lt;/span&gt;&lt;span style=&quot;background-color: rgb(24, 24, 24); color: rgb(214, 214, 221); font-family: Menlo, Monaco, &amp;quot;Courier New&amp;quot;, monospace; white-space: pre;&quot;&gt;]&lt;/span&gt;" style="points=[[0,0],[0.25,0],[0.5,0],[0.75,0],[1,0],[1,0.25],[1,0.5],[1,0.75],[1,1],[0.75,1],[0.5,1],[0.25,1],[0,1],[0,0.75],[0,0.5],[0,0.25]];outlineConnect=0;gradientColor=none;html=1;whiteSpace=wrap;fontSize=12;fontStyle=0;container=1;pointerEvents=0;collapsible=0;recursiveResize=0;shape=mxgraph.aws4.group;grIcon=mxgraph.aws4.group_security_group;grStroke=0;strokeColor=#7AA116;fillColor=#F2F6E8;verticalAlign=top;align=left;spacingLeft=30;fontColor=#248814;dashed=0;movable=0;resizable=0;rotatable=0;deletable=0;editable=0;locked=1;connectable=0;" vertex="1" parent="1">
          <mxGeometry x="130" y="260" width="580" height="250" as="geometry" />
        </mxCell>
        <mxCell id="aPHQRfl6VZH8cD_R3Oct-30" value="" style="sketch=0;outlineConnect=0;fontColor=#232F3E;gradientColor=none;fillColor=#8C4FFF;strokeColor=none;dashed=0;verticalLabelPosition=bottom;verticalAlign=top;align=center;html=1;fontSize=12;fontStyle=0;aspect=fixed;pointerEvents=1;shape=mxgraph.aws4.application_load_balancer;movable=0;resizable=0;rotatable=0;deletable=0;editable=0;locked=1;connectable=0;" vertex="1" parent="aPHQRfl6VZH8cD_R3Oct-12">
          <mxGeometry x="261" y="10" width="78" height="78" as="geometry" />
        </mxCell>
        <mxCell id="aPHQRfl6VZH8cD_R3Oct-31" value="&lt;p style=&quot;line-height: 90%;&quot;&gt;&lt;font face=&quot;Helvetica&quot; style=&quot;font-size: 11px;&quot;&gt;Application Load Balancer&lt;/font&gt;&lt;/p&gt;" style="text;html=1;align=center;verticalAlign=middle;whiteSpace=wrap;rounded=0;fontSize=16;fillColor=#8b4dff;fontColor=#ffffff;strokeColor=#006EAF;movable=0;resizable=0;rotatable=0;deletable=0;editable=0;locked=1;connectable=0;" vertex="1" parent="aPHQRfl6VZH8cD_R3Oct-12">
          <mxGeometry x="245" y="88" width="110" height="30" as="geometry" />
        </mxCell>
        <mxCell id="aPHQRfl6VZH8cD_R3Oct-17" value="NAT gateway" style="sketch=0;outlineConnect=0;fontColor=#232F3E;gradientColor=none;strokeColor=#232F3E;fillColor=#ffffff;dashed=0;verticalLabelPosition=bottom;verticalAlign=top;align=center;html=1;fontSize=12;fontStyle=0;aspect=fixed;shape=mxgraph.aws4.resourceIcon;resIcon=mxgraph.aws4.nat_gateway;movable=0;resizable=0;rotatable=0;deletable=0;editable=0;locked=1;connectable=0;" vertex="1" parent="aPHQRfl6VZH8cD_R3Oct-12">
          <mxGeometry x="90" y="160" width="60" height="60" as="geometry" />
        </mxCell>
        <mxCell id="aPHQRfl6VZH8cD_R3Oct-40" value="Security group" style="fillColor=none;strokeColor=#DD3522;verticalAlign=top;fontStyle=0;fontColor=#DD3522;whiteSpace=wrap;html=1;movable=0;resizable=0;rotatable=0;deletable=0;editable=0;locked=1;connectable=0;" vertex="1" parent="aPHQRfl6VZH8cD_R3Oct-12">
          <mxGeometry x="25" y="145" width="530" height="90" as="geometry" />
        </mxCell>
        <mxCell id="aPHQRfl6VZH8cD_R3Oct-13" value="Private subnet.&amp;nbsp;&lt;span style=&quot;background-color: rgb(24, 24, 24); color: rgb(214, 214, 221); font-family: Menlo, Monaco, &amp;quot;Courier New&amp;quot;, monospace; white-space: pre;&quot;&gt;[&lt;/span&gt;&lt;span style=&quot;font-family: Menlo, Monaco, &amp;quot;Courier New&amp;quot;, monospace; white-space: pre; color: rgb(227, 148, 220);&quot;&gt;&quot;10.0.1.0/24&quot;                            &lt;/span&gt;&lt;span style=&quot;font-family: Menlo, Monaco, &amp;quot;Courier New&amp;quot;, monospace; white-space: pre; color: rgb(227, 148, 220);&quot;&gt;&quot;10.0.2.0/24&quot;&lt;/span&gt;&lt;span style=&quot;background-color: rgb(24, 24, 24); color: rgb(214, 214, 221); font-family: Menlo, Monaco, &amp;quot;Courier New&amp;quot;, monospace; white-space: pre;&quot;&gt;]&lt;/span&gt;" style="points=[[0,0],[0.25,0],[0.5,0],[0.75,0],[1,0],[1,0.25],[1,0.5],[1,0.75],[1,1],[0.75,1],[0.5,1],[0.25,1],[0,1],[0,0.75],[0,0.5],[0,0.25]];outlineConnect=0;gradientColor=none;html=1;whiteSpace=wrap;fontSize=12;fontStyle=0;container=1;pointerEvents=0;collapsible=0;recursiveResize=0;shape=mxgraph.aws4.group;grIcon=mxgraph.aws4.group_security_group;grStroke=0;strokeColor=#00A4A6;fillColor=#E6F6F7;verticalAlign=top;align=left;spacingLeft=30;fontColor=#147EBA;dashed=0;movable=0;resizable=0;rotatable=0;deletable=0;editable=0;locked=1;connectable=0;" vertex="1" parent="1">
          <mxGeometry x="130" y="560" width="580" height="220" as="geometry" />
        </mxCell>
        <mxCell id="aPHQRfl6VZH8cD_R3Oct-32" value="Auto Scaling group" style="points=[[0,0],[0.25,0],[0.5,0],[0.75,0],[1,0],[1,0.25],[1,0.5],[1,0.75],[1,1],[0.75,1],[0.5,1],[0.25,1],[0,1],[0,0.75],[0,0.5],[0,0.25]];outlineConnect=0;gradientColor=none;html=1;whiteSpace=wrap;fontSize=12;fontStyle=0;container=1;pointerEvents=0;collapsible=0;recursiveResize=0;shape=mxgraph.aws4.groupCenter;grIcon=mxgraph.aws4.group_auto_scaling_group;grStroke=1;strokeColor=#D86613;fillColor=none;verticalAlign=top;align=center;fontColor=#D86613;dashed=1;spacingTop=25;movable=0;resizable=0;rotatable=0;deletable=0;editable=0;locked=1;connectable=0;" vertex="1" parent="aPHQRfl6VZH8cD_R3Oct-13">
          <mxGeometry x="50" y="50" width="510" height="160" as="geometry" />
        </mxCell>
        <mxCell id="aPHQRfl6VZH8cD_R3Oct-20" value="Wordpress EC2" style="sketch=0;outlineConnect=0;fontColor=#232F3E;gradientColor=none;strokeColor=#ffffff;fillColor=#232F3E;dashed=0;verticalLabelPosition=middle;verticalAlign=bottom;align=center;html=1;whiteSpace=wrap;fontSize=10;fontStyle=1;spacing=3;shape=mxgraph.aws4.productIcon;prIcon=mxgraph.aws4.ec2;movable=0;resizable=0;rotatable=0;deletable=0;editable=0;locked=1;connectable=0;" vertex="1" parent="aPHQRfl6VZH8cD_R3Oct-32">
          <mxGeometry x="390" y="56.25" width="80" height="100" as="geometry" />
        </mxCell>
        <mxCell id="aPHQRfl6VZH8cD_R3Oct-41" value="Security group" style="fillColor=none;strokeColor=#DD3522;verticalAlign=top;fontStyle=0;fontColor=#DD3522;whiteSpace=wrap;html=1;movable=0;resizable=0;rotatable=0;deletable=0;editable=0;locked=1;connectable=0;" vertex="1" parent="aPHQRfl6VZH8cD_R3Oct-32">
          <mxGeometry x="-15" y="52.5" width="540" height="107.5" as="geometry" />
        </mxCell>
        <mxCell id="aPHQRfl6VZH8cD_R3Oct-19" value="Wordpress EC2" style="sketch=0;outlineConnect=0;fontColor=#232F3E;gradientColor=none;strokeColor=#ffffff;fillColor=#232F3E;dashed=0;verticalLabelPosition=middle;verticalAlign=bottom;align=center;html=1;whiteSpace=wrap;fontSize=10;fontStyle=1;spacing=3;shape=mxgraph.aws4.productIcon;prIcon=mxgraph.aws4.ec2;movable=0;resizable=0;rotatable=0;deletable=0;editable=0;locked=1;connectable=0;" vertex="1" parent="aPHQRfl6VZH8cD_R3Oct-32">
          <mxGeometry x="14.75" y="56.25" width="80" height="95" as="geometry" />
        </mxCell>
        <mxCell id="aPHQRfl6VZH8cD_R3Oct-14" value="Private subnet&amp;nbsp;&lt;span style=&quot;background-color: rgb(24, 24, 24); color: rgb(214, 214, 221); font-family: Menlo, Monaco, &amp;quot;Courier New&amp;quot;, monospace; white-space: pre;&quot;&gt;[&lt;/span&gt;&lt;span style=&quot;font-family: Menlo, Monaco, &amp;quot;Courier New&amp;quot;, monospace; white-space: pre; color: rgb(227, 148, 220);&quot;&gt;&quot;10.0.151.0/24&quot;                     &lt;/span&gt;&lt;span style=&quot;font-family: Menlo, Monaco, &amp;quot;Courier New&amp;quot;, monospace; white-space: pre; color: rgb(227, 148, 220);&quot;&gt;     &quot;10.0.152.0/24&quot;&lt;/span&gt;&lt;span style=&quot;background-color: rgb(24, 24, 24); color: rgb(214, 214, 221); font-family: Menlo, Monaco, &amp;quot;Courier New&amp;quot;, monospace; white-space: pre;&quot;&gt;]&lt;/span&gt;" style="points=[[0,0],[0.25,0],[0.5,0],[0.75,0],[1,0],[1,0.25],[1,0.5],[1,0.75],[1,1],[0.75,1],[0.5,1],[0.25,1],[0,1],[0,0.75],[0,0.5],[0,0.25]];outlineConnect=0;gradientColor=none;html=1;whiteSpace=wrap;fontSize=12;fontStyle=0;container=1;pointerEvents=0;collapsible=0;recursiveResize=0;shape=mxgraph.aws4.group;grIcon=mxgraph.aws4.group_security_group;grStroke=0;strokeColor=#00A4A6;fillColor=#E6F6F7;verticalAlign=top;align=left;spacingLeft=30;fontColor=#147EBA;dashed=0;movable=0;resizable=0;rotatable=0;deletable=0;editable=0;locked=1;connectable=0;" vertex="1" parent="1">
          <mxGeometry x="150" y="850" width="580" height="170" as="geometry" />
        </mxCell>
        <mxCell id="aPHQRfl6VZH8cD_R3Oct-18" value="Bastion EC2" style="sketch=0;outlineConnect=0;fontColor=#232F3E;gradientColor=none;strokeColor=#ffffff;fillColor=#232F3E;dashed=0;verticalLabelPosition=middle;verticalAlign=bottom;align=center;html=1;whiteSpace=wrap;fontSize=10;fontStyle=1;spacing=3;shape=mxgraph.aws4.productIcon;prIcon=mxgraph.aws4.ec2;movable=0;resizable=0;rotatable=0;deletable=0;editable=0;locked=1;connectable=0;" vertex="1" parent="1">
          <mxGeometry x="579.75" y="410" width="70" height="90" as="geometry" />
        </mxCell>
        <mxCell id="aPHQRfl6VZH8cD_R3Oct-25" value="" style="outlineConnect=0;dashed=0;verticalLabelPosition=bottom;verticalAlign=top;align=center;html=1;shape=mxgraph.aws3.rds_db_instance;fillColor=#2E73B8;gradientColor=none;movable=0;resizable=0;rotatable=0;deletable=0;editable=0;locked=1;connectable=0;" vertex="1" parent="1">
          <mxGeometry x="240" y="890" width="49.5" height="66" as="geometry" />
        </mxCell>
        <mxCell id="aPHQRfl6VZH8cD_R3Oct-27" value="&lt;p style=&quot;line-height: 90%;&quot;&gt;&lt;font face=&quot;Helvetica&quot; style=&quot;font-size: 11px;&quot;&gt;Master RDS&lt;/font&gt;&lt;/p&gt;" style="text;html=1;align=center;verticalAlign=middle;whiteSpace=wrap;rounded=0;fontSize=16;fillColor=#1ba1e2;fontColor=#ffffff;strokeColor=#006EAF;movable=0;resizable=0;rotatable=0;deletable=0;editable=0;locked=1;connectable=0;" vertex="1" parent="1">
          <mxGeometry x="234.75" y="970" width="60" height="30" as="geometry" />
        </mxCell>
        <mxCell id="aPHQRfl6VZH8cD_R3Oct-28" value="&lt;p style=&quot;line-height: 90%;&quot;&gt;&lt;font face=&quot;Helvetica&quot; style=&quot;font-size: 11px;&quot;&gt;Standby RDS&lt;/font&gt;&lt;/p&gt;" style="text;html=1;align=center;verticalAlign=middle;whiteSpace=wrap;rounded=0;fontSize=16;fillColor=#1ba1e2;fontColor=#ffffff;strokeColor=#006EAF;movable=0;resizable=0;rotatable=0;deletable=0;editable=0;locked=1;connectable=0;" vertex="1" parent="1">
          <mxGeometry x="604.75" y="970" width="60" height="30" as="geometry" />
        </mxCell>
        <mxCell id="aPHQRfl6VZH8cD_R3Oct-29" value="" style="outlineConnect=0;dashed=0;verticalLabelPosition=bottom;verticalAlign=top;align=center;html=1;shape=mxgraph.aws3.rds_db_instance_standby_multi_az;fillColor=#2E73B8;gradientColor=none;movable=0;resizable=0;rotatable=0;deletable=0;editable=0;locked=1;connectable=0;" vertex="1" parent="1">
          <mxGeometry x="610" y="880" width="49.5" height="66" as="geometry" />
        </mxCell>
        <mxCell id="aPHQRfl6VZH8cD_R3Oct-33" value="" style="sketch=0;outlineConnect=0;fontColor=#232F3E;gradientColor=none;fillColor=#8C4FFF;strokeColor=none;dashed=0;verticalLabelPosition=bottom;verticalAlign=top;align=center;html=1;fontSize=12;fontStyle=0;aspect=fixed;pointerEvents=1;shape=mxgraph.aws4.internet_gateway;movable=0;resizable=0;rotatable=0;deletable=0;editable=0;locked=1;connectable=0;" vertex="1" parent="1">
          <mxGeometry x="391" y="150" width="78" height="78" as="geometry" />
        </mxCell>
        <mxCell id="aPHQRfl6VZH8cD_R3Oct-34" value="" style="html=1;verticalLabelPosition=bottom;align=center;labelBackgroundColor=#ffffff;verticalAlign=top;strokeWidth=2;strokeColor=#0080F0;shadow=0;dashed=0;shape=mxgraph.ios7.icons.user;movable=0;resizable=0;rotatable=0;deletable=0;editable=0;locked=1;connectable=0;" vertex="1" parent="1">
          <mxGeometry x="400" y="50" width="55" height="60" as="geometry" />
        </mxCell>
        <mxCell id="aPHQRfl6VZH8cD_R3Oct-35" value="&lt;p style=&quot;line-height: 90%;&quot;&gt;&lt;font face=&quot;Helvetica&quot; style=&quot;font-size: 11px;&quot;&gt;IGW&lt;/font&gt;&lt;/p&gt;" style="text;html=1;align=center;verticalAlign=middle;whiteSpace=wrap;rounded=0;fontSize=16;fillColor=#8b4dff;fontColor=#ffffff;strokeColor=#006EAF;movable=0;resizable=0;rotatable=0;deletable=0;editable=0;locked=1;connectable=0;" vertex="1" parent="1">
          <mxGeometry x="402.5" y="210" width="55" height="30" as="geometry" />
        </mxCell>
        <mxCell id="aPHQRfl6VZH8cD_R3Oct-36" value="&lt;p style=&quot;line-height: 90%;&quot;&gt;&lt;font face=&quot;Helvetica&quot; style=&quot;font-size: 11px;&quot;&gt;User&lt;/font&gt;&lt;/p&gt;" style="text;html=1;align=center;verticalAlign=middle;whiteSpace=wrap;rounded=0;fontSize=16;fillColor=#0481f6;fontColor=#ffffff;strokeColor=#006EAF;movable=0;resizable=0;rotatable=0;deletable=0;editable=0;locked=1;connectable=0;" vertex="1" parent="1">
          <mxGeometry x="336" y="45" width="55" height="30" as="geometry" />
        </mxCell>
        <mxCell id="aPHQRfl6VZH8cD_R3Oct-37" value="" style="verticalLabelPosition=bottom;shadow=0;dashed=0;align=center;html=1;verticalAlign=top;strokeWidth=1;shape=mxgraph.mockup.containers.userFemale;strokeColor=#666666;strokeColor2=#008cff;movable=0;resizable=0;rotatable=0;deletable=0;editable=0;locked=1;connectable=0;" vertex="1" parent="1">
          <mxGeometry x="750" y="45" width="80" height="65" as="geometry" />
        </mxCell>
        <mxCell id="aPHQRfl6VZH8cD_R3Oct-38" value="&lt;p style=&quot;line-height: 90%;&quot;&gt;&lt;font face=&quot;Helvetica&quot; style=&quot;font-size: 11px;&quot;&gt;Admin&lt;/font&gt;&lt;/p&gt;" style="text;html=1;align=center;verticalAlign=middle;whiteSpace=wrap;rounded=0;fontSize=16;fillColor=#0481f6;fontColor=#ffffff;strokeColor=#006EAF;movable=0;resizable=0;rotatable=0;deletable=0;editable=0;locked=1;connectable=0;" vertex="1" parent="1">
          <mxGeometry x="695" y="45" width="55" height="30" as="geometry" />
        </mxCell>
        <mxCell id="aPHQRfl6VZH8cD_R3Oct-42" value="Security group" style="fillColor=none;strokeColor=#DD3522;verticalAlign=top;fontStyle=0;fontColor=#DD3522;whiteSpace=wrap;html=1;movable=0;resizable=0;rotatable=0;deletable=0;editable=0;locked=1;connectable=0;" vertex="1" parent="1">
          <mxGeometry x="170" y="880" width="540" height="107.5" as="geometry" />
        </mxCell>
        <mxCell id="aPHQRfl6VZH8cD_R3Oct-53" value="" style="endArrow=classic;startArrow=classic;html=1;rounded=0;fontSize=12;edgeStyle=orthogonalEdgeStyle;shape=flexArrow;fillColor=#008a00;strokeColor=#005700;width=5.714285714285714;startSize=5.8;" edge="1" parent="1">
          <mxGeometry width="50" height="50" relative="1" as="geometry">
            <mxPoint x="800" y="110" as="sourcePoint" />
            <mxPoint x="649.75" y="480" as="targetPoint" />
            <Array as="points">
              <mxPoint x="819.75" y="141" />
              <mxPoint x="819.75" y="480" />
            </Array>
          </mxGeometry>
        </mxCell>
        <mxCell id="aPHQRfl6VZH8cD_R3Oct-54" value="" style="endArrow=classic;startArrow=classic;html=1;rounded=0;fontSize=12;edgeStyle=orthogonalEdgeStyle;shape=flexArrow;fillColor=#008a00;strokeColor=#005700;width=5.714285714285714;startSize=5.8;" edge="1" parent="1">
          <mxGeometry width="50" height="50" relative="1" as="geometry">
            <mxPoint x="620" y="500" as="sourcePoint" />
            <mxPoint x="610" y="660" as="targetPoint" />
            <Array as="points">
              <mxPoint x="620" y="540" />
              <mxPoint x="670" y="540" />
              <mxPoint x="670" y="600" />
              <mxPoint x="610" y="600" />
            </Array>
          </mxGeometry>
        </mxCell>
        <mxCell id="aPHQRfl6VZH8cD_R3Oct-57" value="" style="edgeStyle=segmentEdgeStyle;endArrow=classic;html=1;curved=0;rounded=0;fontSize=12;shape=flexArrow;fillColor=#008a00;strokeColor=#005700;" edge="1" parent="1">
          <mxGeometry width="50" height="50" relative="1" as="geometry">
            <mxPoint x="620" y="530" as="sourcePoint" />
            <mxPoint x="220" y="670" as="targetPoint" />
            <Array as="points">
              <mxPoint x="370" y="530" />
              <mxPoint x="370" y="610" />
              <mxPoint x="220" y="610" />
            </Array>
          </mxGeometry>
        </mxCell>
        <mxCell id="aPHQRfl6VZH8cD_R3Oct-61" value="" style="edgeStyle=elbowEdgeStyle;elbow=vertical;endArrow=classic;html=1;curved=0;rounded=0;fontSize=12;shape=flexArrow;fillColor=#a20025;strokeColor=#6F0000;" edge="1" parent="1">
          <mxGeometry width="50" height="50" relative="1" as="geometry">
            <mxPoint x="100" y="450" as="sourcePoint" />
            <mxPoint x="610" y="760" as="targetPoint" />
            <Array as="points">
              <mxPoint x="350" y="820" />
            </Array>
          </mxGeometry>
        </mxCell>
        <mxCell id="aPHQRfl6VZH8cD_R3Oct-62" value="" style="endArrow=classic;html=1;rounded=0;fontSize=12;curved=1;shape=flexArrow;fillColor=#a20025;strokeColor=#6F0000;" edge="1" parent="1">
          <mxGeometry width="50" height="50" relative="1" as="geometry">
            <mxPoint x="100" y="710" as="sourcePoint" />
            <mxPoint x="200" y="710" as="targetPoint" />
          </mxGeometry>
        </mxCell>
        <mxCell id="aPHQRfl6VZH8cD_R3Oct-63" value="" style="endArrow=classic;html=1;rounded=0;fontSize=12;curved=1;shape=flexArrow;fillColor=#a20025;strokeColor=#6F0000;" edge="1" parent="1">
          <mxGeometry width="50" height="50" relative="1" as="geometry">
            <mxPoint x="100" y="454.52" as="sourcePoint" />
            <mxPoint x="220" y="450" as="targetPoint" />
          </mxGeometry>
        </mxCell>
        <mxCell id="aPHQRfl6VZH8cD_R3Oct-64" value="" style="endArrow=classic;html=1;rounded=0;fontSize=12;curved=1;shape=flexArrow;fillColor=#a20025;strokeColor=#6F0000;" edge="1" parent="1">
          <mxGeometry width="50" height="50" relative="1" as="geometry">
            <mxPoint x="280" y="454.52" as="sourcePoint" />
            <mxPoint x="430" y="380" as="targetPoint" />
            <Array as="points">
              <mxPoint x="500" y="440" />
            </Array>
          </mxGeometry>
        </mxCell>
        <mxCell id="aPHQRfl6VZH8cD_R3Oct-65" value="" style="endArrow=classic;html=1;rounded=0;fontSize=12;curved=1;shape=flexArrow;fillColor=#a20025;strokeColor=#6F0000;" edge="1" parent="1">
          <mxGeometry width="50" height="50" relative="1" as="geometry">
            <mxPoint x="430" y="270" as="sourcePoint" />
            <mxPoint x="430" y="240" as="targetPoint" />
          </mxGeometry>
        </mxCell>
        <mxCell id="aPHQRfl6VZH8cD_R3Oct-66" value="" style="endArrow=classic;html=1;rounded=0;fontSize=12;curved=1;shape=flexArrow;fillColor=#a20025;strokeColor=#6F0000;" edge="1" parent="1">
          <mxGeometry width="50" height="50" relative="1" as="geometry">
            <mxPoint x="430" y="110" as="sourcePoint" />
            <mxPoint x="430" y="150" as="targetPoint" />
          </mxGeometry>
        </mxCell>
        <mxCell id="aPHQRfl6VZH8cD_R3Oct-67" value="Elastic IP&#xa;Address" style="sketch=0;outlineConnect=0;fontColor=#232F3E;gradientColor=none;strokeColor=#232F3E;fillColor=#ffffff;dashed=0;verticalLabelPosition=bottom;verticalAlign=top;align=center;html=1;fontSize=12;fontStyle=0;aspect=fixed;shape=mxgraph.aws4.resourceIcon;resIcon=mxgraph.aws4.elastic_ip_address;" vertex="1" parent="1">
          <mxGeometry x="320" y="420" width="60" height="60" as="geometry" />
        </mxCell>
      </root>
    </mxGraphModel>
  </diagram>
</mxfile>
